<svg width="20" height="20" viewBox="0 0 20 20" fill="none" xmlns="http://www.w3.org/2000/svg">
<path d="M9.775 0.0199998L10 6.95257e-08C10.2926 -9.74653e-05 10.5759 0.102429 10.8006 0.289723C11.0254 0.477018 11.1773 0.737215 11.23 1.025L11.25 1.25V8.75H18.75C19.0426 8.7499 19.3259 8.85243 19.5506 9.03972C19.7754 9.22702 19.9273 9.48721 19.98 9.775L20 10C20.0001 10.2926 19.8976 10.5759 19.7103 10.8006C19.523 11.0254 19.2628 11.1773 18.975 11.23L18.75 11.25H11.25V18.75C11.2501 19.0426 11.1476 19.3259 10.9603 19.5506C10.773 19.7754 10.5128 19.9273 10.225 19.98L10 20C9.70744 20.0001 9.42411 19.8976 9.19935 19.7103C8.9746 19.523 8.82266 19.2628 8.77 18.975L8.75 18.75V11.25H1.25C0.957436 11.2501 0.674107 11.1476 0.449353 10.9603C0.224599 10.773 0.0726613 10.5128 0.0199998 10.225L6.95257e-08 10C-9.74653e-05 9.70744 0.102429 9.42411 0.289723 9.19935C0.477018 8.9746 0.737215 8.82266 1.025 8.77L1.25 8.75H8.75V1.25C8.7499 0.957436 8.85243 0.674107 9.03972 0.449353C9.22702 0.224599 9.48721 0.0726613 9.775 0.0199998Z" fill="white"/>
</svg>
