<svg width="8" height="7" viewBox="0 0 8 7" fill="none" xmlns="http://www.w3.org/2000/svg">
<path d="M4.35003 3.49901L6.85594 0.998922C6.96568 0.889184 7.02733 0.740347 7.02733 0.585155C7.02733 0.429962 6.96568 0.281126 6.85594 0.171388C6.7462 0.0616501 6.59736 0 6.44217 0C6.28698 0 6.13814 0.0616501 6.02841 0.171388L3.52832 2.6773L1.02824 0.171388C0.918499 0.0616501 0.769662 -1.15627e-09 0.61447 0C0.459277 1.15628e-09 0.310441 0.0616501 0.200703 0.171388C0.090965 0.281126 0.0293149 0.429962 0.0293149 0.585155C0.0293149 0.740347 0.090965 0.889184 0.200703 0.998922L2.70661 3.49901L0.200703 5.99909C0.146081 6.05327 0.102726 6.11772 0.0731395 6.18874C0.043553 6.25975 0.0283203 6.33592 0.0283203 6.41286C0.0283203 6.48979 0.043553 6.56596 0.0731395 6.63698C0.102726 6.70799 0.146081 6.77245 0.200703 6.82662C0.254879 6.88124 0.319334 6.9246 0.39035 6.95419C0.461366 6.98377 0.537537 6.99901 0.61447 6.99901C0.691402 6.99901 0.767574 6.98377 0.838589 6.95419C0.909605 6.9246 0.97406 6.88124 1.02824 6.82662L3.52832 4.32071L6.02841 6.82662C6.08258 6.88124 6.14704 6.9246 6.21805 6.95419C6.28907 6.98377 6.36524 6.99901 6.44217 6.99901C6.5191 6.99901 6.59528 6.98377 6.66629 6.95419C6.73731 6.9246 6.80176 6.88124 6.85594 6.82662C6.91056 6.77245 6.95392 6.70799 6.9835 6.63698C7.01309 6.56596 7.02832 6.48979 7.02832 6.41286C7.02832 6.33592 7.01309 6.25975 6.9835 6.18874C6.95392 6.11772 6.91056 6.05327 6.85594 5.99909L4.35003 3.49901Z" fill="#727272"/>
</svg>
