<svg width="16" height="16" viewBox="0 0 16 16" fill="none" xmlns="http://www.w3.org/2000/svg">
<path d="M8 0C6.41775 0 4.87103 0.469192 3.55544 1.34824C2.23985 2.22729 1.21447 3.47672 0.608967 4.93853C0.00346627 6.40034 -0.15496 8.00887 0.153721 9.56072C0.462403 11.1126 1.22433 12.538 2.34315 13.6569C3.46197 14.7757 4.88743 15.5376 6.43928 15.8463C7.99113 16.155 9.59966 15.9965 11.0615 15.391C12.5233 14.7855 13.7727 13.7602 14.6518 12.4446C15.5308 11.129 16 9.58225 16 8C16 6.94942 15.7931 5.90914 15.391 4.93853C14.989 3.96793 14.3997 3.08601 13.6569 2.34315C12.914 1.60028 12.0321 1.011 11.0615 0.608964C10.0909 0.206926 9.05058 0 8 0ZM8 14.4C6.7342 14.4 5.49683 14.0246 4.44435 13.3214C3.39188 12.6182 2.57158 11.6186 2.08717 10.4492C1.60277 9.27973 1.47603 7.9929 1.72298 6.75142C1.96992 5.50994 2.57946 4.36957 3.47452 3.47452C4.36958 2.57946 5.50995 1.96992 6.75142 1.72297C7.9929 1.47603 9.27973 1.60277 10.4492 2.08717C11.6186 2.57157 12.6182 3.39188 13.3214 4.44435C14.0246 5.49682 14.4 6.7342 14.4 8C14.4 9.69738 13.7257 11.3252 12.5255 12.5255C11.3253 13.7257 9.69739 14.4 8 14.4Z" fill="#D1D1D1"/>
<path d="M8.00001 5.6C8.44184 5.6 8.80001 5.24183 8.80001 4.8C8.80001 4.35817 8.44184 4 8.00001 4C7.55818 4 7.20001 4.35817 7.20001 4.8C7.20001 5.24183 7.55818 5.6 8.00001 5.6Z" fill="#D1D1D1"/>
<path d="M8.00001 6.40002C7.78784 6.40002 7.58436 6.48431 7.43433 6.63434C7.2843 6.78437 7.20001 6.98785 7.20001 7.20002V11.2C7.20001 11.4122 7.2843 11.6157 7.43433 11.7657C7.58436 11.9157 7.78784 12 8.00001 12C8.21219 12 8.41567 11.9157 8.5657 11.7657C8.71573 11.6157 8.80001 11.4122 8.80001 11.2V7.20002C8.80001 6.98785 8.71573 6.78437 8.5657 6.63434C8.41567 6.48431 8.21219 6.40002 8.00001 6.40002Z" fill="#D1D1D1"/>
</svg>
