<svg width="3" height="14" viewBox="0 0 3 14" fill="none" xmlns="http://www.w3.org/2000/svg">
<g clip-path="url(#clip0_1_552)">
<path d="M1.5 3C2.32843 3 3 2.32843 3 1.5C3 0.671573 2.32843 0 1.5 0C0.671573 0 0 0.671573 0 1.5C0 2.32843 0.671573 3 1.5 3Z" fill="#A4A4A4"/>
<path d="M1.5 8.5C2.32843 8.5 3 7.82843 3 7C3 6.17157 2.32843 5.5 1.5 5.5C0.671573 5.5 0 6.17157 0 7C0 7.82843 0.671573 8.5 1.5 8.5Z" fill="#A4A4A4"/>
<path d="M1.5 14C2.32843 14 3 13.3284 3 12.5C3 11.6716 2.32843 11 1.5 11C0.671573 11 0 11.6716 0 12.5C0 13.3284 0.671573 14 1.5 14Z" fill="#A4A4A4"/>
</g>
<defs>
<clipPath id="clip0_1_552">
<rect width="3" height="14" fill="white"/>
</clipPath>
</defs>
</svg>
