<svg width="25" height="25" viewBox="0 0 25 25" fill="none" xmlns="http://www.w3.org/2000/svg">
<path d="M4.77105 11.5421C5.74917 11.5421 6.54209 10.7492 6.54209 9.77105C6.54209 8.79292 5.74917 8 4.77105 8C3.79292 8 3 8.79292 3 9.77105C3 10.7492 3.79292 11.5421 4.77105 11.5421Z" fill="#ABABAB"/>
<path d="M9.86083 11.5421C10.839 11.5421 11.6319 10.7492 11.6319 9.77105C11.6319 8.79292 10.839 8 9.86083 8C8.88271 8 8.08978 8.79292 8.08978 9.77105C8.08978 10.7492 8.88271 11.5421 9.86083 11.5421Z" fill="#ABABAB"/>
<path d="M14.9499 11.5421C15.928 11.5421 16.7209 10.7492 16.7209 9.77105C16.7209 8.79292 15.928 8 14.9499 8C13.9718 8 13.1788 8.79292 13.1788 9.77105C13.1788 10.7492 13.9718 11.5421 14.9499 11.5421Z" fill="#ABABAB"/>
<path d="M4.77105 16.474C5.74917 16.474 6.54209 15.6811 6.54209 14.7029C6.54209 13.7248 5.74917 12.9319 4.77105 12.9319C3.79292 12.9319 3 13.7248 3 14.7029C3 15.6811 3.79292 16.474 4.77105 16.474Z" fill="#ABABAB"/>
<path d="M9.86083 16.474C10.839 16.474 11.6319 15.6811 11.6319 14.7029C11.6319 13.7248 10.839 12.9319 9.86083 12.9319C8.88271 12.9319 8.08978 13.7248 8.08978 14.7029C8.08978 15.6811 8.88271 16.474 9.86083 16.474Z" fill="#ABABAB"/>
<path d="M14.9499 16.474C15.928 16.474 16.7209 15.6811 16.7209 14.7029C16.7209 13.7248 15.928 12.9319 14.9499 12.9319C13.9718 12.9319 13.1788 13.7248 13.1788 14.7029C13.1788 15.6811 13.9718 16.474 14.9499 16.474Z" fill="#ABABAB"/>
<path d="M4.77105 21.406C5.74917 21.406 6.54209 20.6131 6.54209 19.6349C6.54209 18.6568 5.74917 17.8639 4.77105 17.8639C3.79292 17.8639 3 18.6568 3 19.6349C3 20.6131 3.79292 21.406 4.77105 21.406Z" fill="#ABABAB"/>
<path d="M9.86083 21.406C10.839 21.406 11.6319 20.6131 11.6319 19.6349C11.6319 18.6568 10.839 17.8639 9.86083 17.8639C8.88271 17.8639 8.08978 18.6568 8.08978 19.6349C8.08978 20.6131 8.88271 21.406 9.86083 21.406Z" fill="#ABABAB"/>
<path d="M14.9499 21.406C15.928 21.406 16.7209 20.6131 16.7209 19.6349C16.7209 18.6568 15.928 17.8639 14.9499 17.8639C13.9718 17.8639 13.1788 18.6568 13.1788 19.6349C13.1788 20.6131 13.9718 21.406 14.9499 21.406Z" fill="#ABABAB"/>
<path d="M19.9201 11.5421C20.8982 11.5421 21.6911 10.7492 21.6911 9.77105C21.6911 8.79292 20.8982 8 19.9201 8C18.942 8 18.149 8.79292 18.149 9.77105C18.149 10.7492 18.942 11.5421 19.9201 11.5421Z" fill="#ABABAB"/>
<path d="M19.9201 16.474C20.8982 16.474 21.6911 15.6811 21.6911 14.7029C21.6911 13.7248 20.8982 12.9319 19.9201 12.9319C18.942 12.9319 18.149 13.7248 18.149 14.7029C18.149 15.6811 18.942 16.474 19.9201 16.474Z" fill="#ABABAB"/>
<path d="M19.9201 21.406C20.8982 21.406 21.6911 20.6131 21.6911 19.6349C21.6911 18.6568 20.8982 17.8639 19.9201 17.8639C18.942 17.8639 18.149 18.6568 18.149 19.6349C18.149 20.6131 18.942 21.406 19.9201 21.406Z" fill="#ABABAB"/>
<path d="M5.46875 0C5.67595 0 5.87466 0.08231 6.02118 0.228823C6.16769 0.375336 6.25 0.57405 6.25 0.78125V1.5625H18.75V0.78125C18.75 0.57405 18.8323 0.375336 18.9788 0.228823C19.1253 0.08231 19.324 0 19.5312 0C19.7385 0 19.9372 0.08231 20.0837 0.228823C20.2302 0.375336 20.3125 0.57405 20.3125 0.78125V1.5625H21.875C22.7038 1.5625 23.4987 1.89174 24.0847 2.47779C24.6708 3.06384 25 3.8587 25 4.6875V21.875C25 22.7038 24.6708 23.4987 24.0847 24.0847C23.4987 24.6708 22.7038 25 21.875 25H3.125C2.2962 25 1.50134 24.6708 0.915291 24.0847C0.32924 23.4987 0 22.7038 0 21.875V4.6875C0 3.8587 0.32924 3.06384 0.915291 2.47779C1.50134 1.89174 2.2962 1.5625 3.125 1.5625H4.6875V0.78125C4.6875 0.57405 4.76981 0.375336 4.91632 0.228823C5.06284 0.08231 5.26155 0 5.46875 0V0ZM1.5625 6.25V21.875C1.5625 22.2894 1.72712 22.6868 2.02015 22.9799C2.31317 23.2729 2.7106 23.4375 3.125 23.4375H21.875C22.2894 23.4375 22.6868 23.2729 22.9799 22.9799C23.2729 22.6868 23.4375 22.2894 23.4375 21.875V6.25H1.5625Z" fill="#ABABAB"/>
</svg>
