<svg width="16" height="17" viewBox="0 0 16 17" fill="none" xmlns="http://www.w3.org/2000/svg">
<path d="M15.8153 0.194382C15.7252 0.104727 15.6114 0.0426527 15.4872 0.0154586C15.3631 -0.0117356 15.2337 -0.00291945 15.1144 0.0408704L0.430735 5.3804C0.3041 5.42843 0.195075 5.51385 0.118139 5.62532C0.0412041 5.73678 0 5.86902 0 6.00446C0 6.13989 0.0412041 6.27213 0.118139 6.38359C0.195075 6.49506 0.3041 6.58048 0.430735 6.62851L6.16405 8.91784L10.3956 4.67291L11.3367 5.614L7.08512 9.8656L9.38112 15.5989C9.43058 15.7231 9.51619 15.8296 9.62686 15.9046C9.73753 15.9795 9.86817 16.0195 10.0018 16.0194C10.1367 16.0166 10.2676 15.9731 10.3772 15.8944C10.4868 15.8158 10.57 15.7058 10.6159 15.5789L15.9554 0.895195C16.0009 0.777109 16.0119 0.648529 15.987 0.524447C15.9622 0.400365 15.9026 0.285895 15.8153 0.194382Z" fill="white"/>
</svg>
