<svg width="25" height="22" viewBox="0 0 25 22" fill="none" xmlns="http://www.w3.org/2000/svg">
<path d="M24.5312 13.5007L19.3585 10.7148L24.5312 7.9289C24.6729 7.85239 24.7914 7.73896 24.8739 7.60062C24.9564 7.46229 25 7.30421 25 7.14313C25 6.98204 24.9564 6.82396 24.8739 6.68563C24.7914 6.5473 24.6729 6.43387 24.5312 6.35736L12.9232 0.106925C12.7932 0.0367439 12.6478 0 12.5 0C12.3522 0 12.2068 0.0367439 12.0768 0.106925L0.468806 6.35736C0.327054 6.43387 0.208638 6.5473 0.126106 6.68563C0.0435744 6.82396 0 6.98204 0 7.14313C0 7.30421 0.0435744 7.46229 0.126106 7.60062C0.208638 7.73896 0.327054 7.85239 0.468806 7.9289L5.64149 10.7148L0.468806 13.5007C0.327054 13.5772 0.208638 13.6907 0.126106 13.829C0.0435744 13.9673 0 14.1254 0 14.2865C0 14.4476 0.0435744 14.6056 0.126106 14.744C0.208638 14.8823 0.327054 14.9957 0.468806 15.0722L12.0768 21.3227C12.2068 21.3927 12.3523 21.4294 12.5 21.4294C12.6477 21.4294 12.7932 21.3927 12.9232 21.3227L24.5312 15.0722C24.6729 14.9957 24.7914 14.8823 24.8739 14.744C24.9564 14.6056 25 14.4476 25 14.2865C25 14.1254 24.9564 13.9673 24.8739 13.829C24.7914 13.6907 24.6729 13.5772 24.5312 13.5007V13.5007ZM12.5 1.90705L22.2239 7.14313L12.5 12.3792L2.77611 7.14313L12.5 1.90705ZM12.5 19.5226L2.77611 14.2865L7.52555 11.7292L12.0768 14.1793C12.2068 14.2494 12.3523 14.286 12.5 14.286C12.6477 14.286 12.7932 14.2494 12.9232 14.1793L17.4745 11.7283L22.2248 14.2865L12.5 19.5226Z" fill="#ABABAB"/>
</svg>
